<svg xmlns="http://www.w3.org/2000/svg" viewBox="0 0 64 64">
  <defs>
    <linearGradient id="bg" x1="8" y1="8" x2="56" y2="56" gradientUnits="userSpaceOnUse">
      <stop offset="0" stop-color="#0f172a" />
      <stop offset="1" stop-color="#1e293b" />
    </linearGradient>
    <linearGradient id="gear" x1="20" y1="18" x2="44" y2="46" gradientUnits="userSpaceOnUse">
      <stop offset="0" stop-color="#f8fafc" />
      <stop offset="1" stop-color="#94a3b8" />
    </linearGradient>
  </defs>
  <rect x="4" y="4" width="56" height="56" rx="18" fill="url(#bg)" />
  <path
    fill="#38bdf8"
    d="M45.6 18.4a2.5 2.5 0 0 1 3.5 0l.5.5a2.5 2.5 0 0 1 0 3.5L43 29l-4-4 6.6-6.6Z"
  />
  <path
    fill="#38bdf8"
    d="m25.7 38.3 11.9-11.9 4 4-11.9 11.9a5 5 0 0 1-2.1 1.3l-5.9 1.7 1.7-5.9a5 5 0 0 1 1.3-2.1Z"
  />
  <path
    fill="url(#gear)"
    d="M34.6 17.2a2 2 0 0 0-5.2 0l-.4 2a13.7 13.7 0 0 0-2.9 1.2l-1.7-1a2 2 0 0 0-2.6.5l-1.7 2.3a2 2 0 0 0 .1 2.6l1.3 1.5a13.1 13.1 0 0 0-.6 3.1l-1.9.7a2 2 0 0 0-1.3 2.2l.4 2.8a2 2 0 0 0 1.9 1.7h2a13.8 13.8 0 0 0 1.7 2.6l-.8 1.8a2 2 0 0 0 .8 2.5l2.5 1.4a2 2 0 0 0 2.6-.4l1.3-1.4c.5.1 1 .1 1.6.1.3 0 .7 0 1-.1l-.4-2.9a8.7 8.7 0 0 1-1 .1 8.9 8.9 0 1 1 7.3-3.8l2.3 1.8a13.7 13.7 0 0 0 1.4-2.7l2-.1a2 2 0 0 0 1.9-1.7l.4-2.8a2 2 0 0 0-1.3-2.2l-1.9-.7a13 13 0 0 0-.6-3.1l1.3-1.5a2 2 0 0 0 .1-2.6l-1.7-2.3a2 2 0 0 0-2.6-.5l-1.7 1a13.7 13.7 0 0 0-2.9-1.2l-.4-2Z"
  />
  <circle cx="32" cy="32" r="5.5" fill="#0f172a" />
</svg>
